<svg width="100%" height="100%" id="svg" viewBox="0 0 1440 590" xmlns="http://www.w3.org/2000/svg" class="transition duration-300 ease-in-out delay-150"><defs><linearGradient id="gradient" x1="1%" y1="42%" x2="99%" y2="58%"><stop offset="5%" stop-color="#63c4f9"></stop><stop offset="95%" stop-color="#fafafa"></stop></linearGradient></defs><path d="M 0,600 L 0,150 C 63.215311004784695,114.41148325358853 126.43062200956939,78.82296650717704 239,94 C 351.5693779904306,109.17703349282296 513.4928229665072,175.11961722488036 617,235 C 720.5071770334928,294.88038277511964 765.598086124402,348.69856459330146 844,357 C 922.401913875598,365.30143540669854 1034.1148325358852,328.0861244019139 1139,336 C 1243.8851674641148,343.9138755980861 1341.9425837320573,396.9569377990431 1440,450 L 1440,600 L 0,600 Z" stroke="none" stroke-width="0" fill="url(#gradient)" fill-opacity="0.53" class="transition-all duration-300 ease-in-out delay-150 path-0" transform="rotate(-180 720 300)"></path><defs><linearGradient id="gradient" x1="1%" y1="42%" x2="99%" y2="58%"><stop offset="5%" stop-color="#63c4f9"></stop><stop offset="95%" stop-color="#fafafa"></stop></linearGradient></defs><path d="M 0,600 L 0,350 C 90.75598086124404,349.27272727272725 181.51196172248808,348.5454545454545 268,354 C 354.4880382775119,359.4545454545455 436.7081339712919,371.0909090909092 541,420 C 645.2918660287081,468.9090909090908 771.6555023923445,555.0909090909091 881,569 C 990.3444976076555,582.9090909090909 1082.6698564593303,524.5454545454546 1173,526 C 1263.3301435406697,527.4545454545454 1351.6650717703349,588.7272727272727 1440,650 L 1440,600 L 0,600 Z" stroke="none" stroke-width="0" fill="url(#gradient)" fill-opacity="1" class="transition-all duration-300 ease-in-out delay-150 path-1" transform="rotate(-180 720 300)"></path></svg>